<svg width="833" height="250" viewBox="0 0 833 250" fill="none" xmlns="http://www.w3.org/2000/svg">
<path d="M57.9103 39.0625H192.09C193.639 39.0651 195.152 39.5282 196.438 40.3929C197.723 41.2577 198.722 42.485 199.309 43.919C199.895 45.353 200.041 46.9288 199.73 48.4463C199.418 49.9638 198.662 51.3544 197.559 52.4414L125 125L52.4415 52.4414C51.3377 51.3544 50.582 49.9638 50.2705 48.4463C49.9589 46.9288 50.1055 45.353 50.6916 43.919C51.2778 42.485 52.277 41.2577 53.5624 40.3929C54.8477 39.5282 56.3611 39.0651 57.9103 39.0625V39.0625Z" stroke="white" stroke-width="13" stroke-linecap="round" stroke-linejoin="round"/>
<path d="M57.9103 210.938H192.09C193.639 210.935 195.152 210.472 196.438 209.607C197.723 208.742 198.722 207.515 199.309 206.081C199.895 204.647 200.041 203.071 199.73 201.554C199.418 200.036 198.662 198.646 197.559 197.559L125 125L52.4415 197.559C51.3377 198.646 50.582 200.036 50.2705 201.554C49.9589 203.071 50.1055 204.647 50.6916 206.081C51.2778 207.515 52.277 208.742 53.5624 209.607C54.8477 210.472 56.3611 210.935 57.9103 210.938Z" stroke="white" stroke-width="13" stroke-linecap="round" stroke-linejoin="round"/>
<path d="M171.875 171.875H78.125" stroke="white" stroke-width="13" stroke-linecap="round" stroke-linejoin="round"/>
<path d="M295.2 148C293.733 148 292.5 147.5 291.5 146.5C290.5 145.5 290 144.267 290 142.8V75.1C290 73.5667 290.5 72.3333 291.5 71.4C292.5 70.4 293.733 69.9 295.2 69.9C296.733 69.9 297.967 70.4 298.9 71.4C299.9 72.3333 300.4 73.5667 300.4 75.1V103.8H346.8V75.1C346.8 73.5667 347.3 72.3333 348.3 71.4C349.3 70.4 350.533 69.9 352 69.9C353.533 69.9 354.767 70.4 355.7 71.4C356.633 72.3333 357.1 73.5667 357.1 75.1V142.8C357.1 144.267 356.633 145.5 355.7 146.5C354.767 147.5 353.533 148 352 148C350.533 148 349.3 147.5 348.3 146.5C347.3 145.5 346.8 144.267 346.8 142.8V113H300.4V142.8C300.4 144.267 299.9 145.5 298.9 146.5C297.967 147.5 296.733 148 295.2 148ZM400.909 148.4C395.509 148.4 390.743 147.233 386.609 144.9C382.476 142.5 379.209 139.233 376.809 135.1C374.476 130.9 373.309 126.1 373.309 120.7C373.309 115.233 374.476 110.433 376.809 106.3C379.209 102.1 382.476 98.8333 386.609 96.5C390.743 94.1 395.509 92.9 400.909 92.9C406.243 92.9 410.976 94.1 415.109 96.5C419.243 98.8333 422.476 102.1 424.809 106.3C427.209 110.433 428.409 115.233 428.409 120.7C428.409 126.1 427.243 130.9 424.909 135.1C422.576 139.233 419.343 142.5 415.209 144.9C411.076 147.233 406.309 148.4 400.909 148.4ZM400.909 139.4C404.376 139.4 407.443 138.6 410.109 137C412.776 135.4 414.843 133.2 416.309 130.4C417.843 127.6 418.609 124.367 418.609 120.7C418.609 117.033 417.843 113.8 416.309 111C414.843 108.133 412.776 105.9 410.109 104.3C407.443 102.7 404.376 101.9 400.909 101.9C397.443 101.9 394.376 102.7 391.709 104.3C389.043 105.9 386.943 108.133 385.409 111C383.876 113.8 383.109 117.033 383.109 120.7C383.109 124.367 383.876 127.6 385.409 130.4C386.943 133.2 389.043 135.4 391.709 137C394.376 138.6 397.443 139.4 400.909 139.4ZM466.59 148.5C461.99 148.5 457.857 147.533 454.19 145.6C450.59 143.6 447.723 140.7 445.59 136.9C443.523 133.1 442.49 128.433 442.49 122.9V98.3C442.49 96.8333 442.957 95.6333 443.89 94.7C444.89 93.7 446.123 93.2 447.59 93.2C449.057 93.2 450.257 93.7 451.19 94.7C452.19 95.6333 452.69 96.8333 452.69 98.3V122.9C452.69 126.633 453.39 129.733 454.79 132.2C456.19 134.6 458.09 136.4 460.49 137.6C462.89 138.733 465.59 139.3 468.59 139.3C471.457 139.3 473.99 138.733 476.19 137.6C478.457 136.467 480.257 134.933 481.59 133C482.923 131.067 483.59 128.9 483.59 126.5H489.89C489.89 130.633 488.857 134.367 486.79 137.7C484.79 141.033 482.023 143.667 478.49 145.6C475.023 147.533 471.057 148.5 466.59 148.5ZM488.69 148C487.223 148 485.99 147.533 484.99 146.6C484.057 145.6 483.59 144.367 483.59 142.9V98.3C483.59 96.7667 484.057 95.5333 484.99 94.6C485.99 93.6667 487.223 93.2 488.69 93.2C490.223 93.2 491.457 93.6667 492.39 94.6C493.323 95.5333 493.79 96.7667 493.79 98.3V142.9C493.79 144.367 493.323 145.6 492.39 146.6C491.457 147.533 490.223 148 488.69 148ZM516.654 113.8C516.654 109.8 517.621 106.233 519.554 103.1C521.554 99.9 524.221 97.3667 527.554 95.5C530.887 93.6333 534.554 92.7 538.554 92.7C542.554 92.7 545.521 93.3667 547.454 94.7C549.454 95.9667 550.221 97.5 549.754 99.3C549.554 100.233 549.154 100.967 548.554 101.5C548.021 101.967 547.387 102.267 546.654 102.4C545.921 102.533 545.121 102.5 544.254 102.3C539.987 101.433 536.154 101.367 532.754 102.1C529.354 102.833 526.654 104.2 524.654 106.2C522.721 108.2 521.754 110.733 521.754 113.8H516.654ZM516.754 148C515.154 148 513.921 147.6 513.054 146.8C512.187 145.933 511.754 144.667 511.754 143V98.3C511.754 96.7 512.187 95.4667 513.054 94.6C513.921 93.7333 515.154 93.3 516.754 93.3C518.421 93.3 519.654 93.7333 520.454 94.6C521.321 95.4 521.754 96.6333 521.754 98.3V143C521.754 144.6 521.321 145.833 520.454 146.7C519.654 147.567 518.421 148 516.754 148ZM596.387 149C590.987 149 585.92 148 581.187 146C576.52 143.933 572.42 141.1 568.887 137.5C565.42 133.833 562.687 129.567 560.687 124.7C558.753 119.833 557.787 114.567 557.787 108.9C557.787 103.3 558.753 98.1 560.687 93.3C562.687 88.4333 565.42 84.2 568.887 80.6C572.42 76.9333 576.52 74.0667 581.187 72C585.853 69.9333 590.92 68.9 596.387 68.9C601.52 68.9 605.92 69.5667 609.587 70.9C613.32 72.2333 617.053 74.4333 620.787 77.5C621.32 77.9 621.72 78.3333 621.987 78.8C622.32 79.2 622.52 79.6333 622.587 80.1C622.72 80.5 622.787 81 622.787 81.6C622.787 82.8667 622.32 83.9333 621.387 84.8C620.52 85.6667 619.42 86.1333 618.087 86.2C616.82 86.2667 615.62 85.8333 614.487 84.9C612.02 82.7667 609.453 81.1333 606.787 80C604.187 78.8667 600.72 78.3 596.387 78.3C592.453 78.3 588.753 79.1 585.287 80.7C581.82 82.3 578.753 84.5 576.087 87.3C573.487 90.1 571.453 93.3667 569.987 97.1C568.52 100.767 567.787 104.7 567.787 108.9C567.787 113.167 568.52 117.167 569.987 120.9C571.453 124.567 573.487 127.8 576.087 130.6C578.753 133.4 581.82 135.6 585.287 137.2C588.753 138.733 592.453 139.5 596.387 139.5C599.787 139.5 602.987 138.933 605.987 137.8C609.053 136.6 611.987 134.967 614.787 132.9C615.987 132.033 617.153 131.667 618.287 131.8C619.487 131.867 620.487 132.333 621.287 133.2C622.087 134 622.487 135.133 622.487 136.6C622.487 137.267 622.353 137.933 622.087 138.6C621.887 139.2 621.487 139.767 620.887 140.3C617.353 143.233 613.52 145.433 609.387 146.9C605.253 148.3 600.92 149 596.387 149ZM622.487 136.6L612.487 134.6V116.7H598.687C597.22 116.7 595.987 116.267 594.987 115.4C593.987 114.533 593.487 113.433 593.487 112.1C593.487 110.767 593.987 109.667 594.987 108.8C595.987 107.933 597.22 107.5 598.687 107.5H617.387C618.92 107.5 620.153 108 621.087 109C622.02 109.933 622.487 111.167 622.487 112.7V136.6ZM651.121 148C648.188 148 645.588 147.2 643.321 145.6C641.054 144 639.288 141.833 638.021 139.1C636.754 136.3 636.121 133.1 636.121 129.5V74.9C636.121 73.4333 636.588 72.2333 637.521 71.3C638.454 70.3667 639.654 69.9 641.121 69.9C642.588 69.9 643.788 70.3667 644.721 71.3C645.654 72.2333 646.121 73.4333 646.121 74.9V129.5C646.121 131.967 646.588 134 647.521 135.6C648.454 137.2 649.654 138 651.121 138H653.621C654.954 138 656.021 138.467 656.821 139.4C657.688 140.333 658.121 141.533 658.121 143C658.121 144.467 657.488 145.667 656.221 146.6C654.954 147.533 653.321 148 651.321 148H651.121ZM687.874 148.4C683.008 148.4 678.641 147.2 674.774 144.8C670.908 142.333 667.841 139.033 665.574 134.9C663.374 130.7 662.274 125.967 662.274 120.7C662.274 115.433 663.474 110.7 665.874 106.5C668.341 102.3 671.641 99 675.774 96.6C679.974 94.1333 684.674 92.9 689.874 92.9C695.074 92.9 699.741 94.1333 703.874 96.6C708.008 99 711.274 102.3 713.674 106.5C716.141 110.7 717.374 115.433 717.374 120.7H713.474C713.474 125.967 712.341 130.7 710.074 134.9C707.874 139.033 704.841 142.333 700.974 144.8C697.108 147.2 692.741 148.4 687.874 148.4ZM689.874 139.4C693.274 139.4 696.308 138.6 698.974 137C701.641 135.333 703.741 133.1 705.274 130.3C706.808 127.433 707.574 124.233 707.574 120.7C707.574 117.1 706.808 113.9 705.274 111.1C703.741 108.233 701.641 106 698.974 104.4C696.308 102.733 693.274 101.9 689.874 101.9C686.541 101.9 683.508 102.733 680.774 104.4C678.108 106 675.974 108.233 674.374 111.1C672.841 113.9 672.074 117.1 672.074 120.7C672.074 124.233 672.841 127.433 674.374 130.3C675.974 133.1 678.108 135.333 680.774 137C683.508 138.6 686.541 139.4 689.874 139.4ZM712.274 148.1C710.808 148.1 709.574 147.633 708.574 146.7C707.641 145.7 707.174 144.467 707.174 143V127.7L709.074 117.1L717.374 120.7V143C717.374 144.467 716.874 145.7 715.874 146.7C714.941 147.633 713.741 148.1 712.274 148.1ZM752.455 148.4C747.788 148.4 743.455 147.7 739.455 146.3C735.521 144.833 732.455 143 730.255 140.8C729.255 139.733 728.821 138.533 728.955 137.2C729.155 135.8 729.821 134.667 730.955 133.8C732.288 132.733 733.588 132.3 734.855 132.5C736.188 132.633 737.321 133.2 738.255 134.2C739.388 135.467 741.188 136.667 743.655 137.8C746.188 138.867 748.988 139.4 752.055 139.4C755.921 139.4 758.855 138.767 760.855 137.5C762.921 136.233 763.988 134.6 764.055 132.6C764.121 130.6 763.155 128.867 761.155 127.4C759.221 125.933 755.655 124.733 750.455 123.8C743.721 122.467 738.821 120.467 735.755 117.8C732.755 115.133 731.255 111.867 731.255 108C731.255 104.6 732.255 101.8 734.255 99.6C736.255 97.3333 738.821 95.6667 741.955 94.6C745.088 93.4667 748.355 92.9 751.755 92.9C756.155 92.9 760.055 93.6 763.455 95C766.855 96.4 769.555 98.3333 771.555 100.8C772.488 101.867 772.921 103 772.855 104.2C772.788 105.333 772.221 106.3 771.155 107.1C770.088 107.833 768.821 108.067 767.355 107.8C765.888 107.533 764.655 106.933 763.655 106C761.988 104.4 760.188 103.3 758.255 102.7C756.321 102.1 754.088 101.8 751.555 101.8C748.621 101.8 746.121 102.3 744.055 103.3C742.055 104.3 741.055 105.767 741.055 107.7C741.055 108.9 741.355 110 741.955 111C742.621 111.933 743.888 112.8 745.755 113.6C747.621 114.333 750.355 115.067 753.955 115.8C758.955 116.8 762.888 118.067 765.755 119.6C768.688 121.133 770.788 122.933 772.055 125C773.321 127 773.955 129.333 773.955 132C773.955 135.067 773.121 137.833 771.455 140.3C769.855 142.767 767.455 144.733 764.255 146.2C761.121 147.667 757.188 148.4 752.455 148.4ZM806.752 148.4C802.085 148.4 797.752 147.7 793.752 146.3C789.818 144.833 786.752 143 784.552 140.8C783.552 139.733 783.118 138.533 783.252 137.2C783.452 135.8 784.118 134.667 785.252 133.8C786.585 132.733 787.885 132.3 789.152 132.5C790.485 132.633 791.618 133.2 792.552 134.2C793.685 135.467 795.485 136.667 797.952 137.8C800.485 138.867 803.285 139.4 806.352 139.4C810.218 139.4 813.152 138.767 815.152 137.5C817.218 136.233 818.285 134.6 818.352 132.6C818.418 130.6 817.452 128.867 815.452 127.4C813.518 125.933 809.952 124.733 804.752 123.8C798.018 122.467 793.118 120.467 790.052 117.8C787.052 115.133 785.552 111.867 785.552 108C785.552 104.6 786.552 101.8 788.552 99.6C790.552 97.3333 793.118 95.6667 796.252 94.6C799.385 93.4667 802.652 92.9 806.052 92.9C810.452 92.9 814.352 93.6 817.752 95C821.152 96.4 823.852 98.3333 825.852 100.8C826.785 101.867 827.218 103 827.152 104.2C827.085 105.333 826.518 106.3 825.452 107.1C824.385 107.833 823.118 108.067 821.652 107.8C820.185 107.533 818.952 106.933 817.952 106C816.285 104.4 814.485 103.3 812.552 102.7C810.618 102.1 808.385 101.8 805.852 101.8C802.918 101.8 800.418 102.3 798.352 103.3C796.352 104.3 795.352 105.767 795.352 107.7C795.352 108.9 795.652 110 796.252 111C796.918 111.933 798.185 112.8 800.052 113.6C801.918 114.333 804.652 115.067 808.252 115.8C813.252 116.8 817.185 118.067 820.052 119.6C822.985 121.133 825.085 122.933 826.352 125C827.618 127 828.252 129.333 828.252 132C828.252 135.067 827.418 137.833 825.752 140.3C824.152 142.767 821.752 144.733 818.552 146.2C815.418 147.667 811.485 148.4 806.752 148.4Z" fill="white"/>
<path d="M352.676 163.006V167.425C352.676 167.938 352.66 168.446 352.627 168.951C352.603 169.455 352.57 169.846 352.53 170.123H352.676C353.034 169.561 353.523 169.085 354.141 168.694C354.76 168.296 355.561 168.096 356.546 168.096C358.076 168.096 359.317 168.694 360.269 169.891C361.221 171.087 361.697 172.841 361.697 175.152C361.697 176.706 361.478 178.012 361.038 179.07C360.599 180.12 359.984 180.914 359.195 181.451C358.405 181.98 357.49 182.244 356.448 182.244C355.447 182.244 354.658 182.065 354.08 181.707C353.502 181.349 353.034 180.946 352.676 180.499H352.42L351.797 182H348.953V163.006H352.676ZM355.35 171.075C354.699 171.075 354.182 171.209 353.799 171.478C353.417 171.746 353.136 172.149 352.957 172.686C352.786 173.223 352.693 173.903 352.676 174.725V175.127C352.676 176.454 352.872 177.471 353.262 178.179C353.653 178.879 354.365 179.229 355.398 179.229C356.163 179.229 356.77 178.875 357.217 178.167C357.673 177.459 357.901 176.438 357.901 175.103C357.901 173.768 357.673 172.763 357.217 172.088C356.762 171.412 356.139 171.075 355.35 171.075ZM362.82 168.353H366.897L369.473 176.031C369.555 176.275 369.624 176.523 369.681 176.775C369.738 177.028 369.786 177.288 369.827 177.557C369.868 177.825 369.9 178.106 369.925 178.399H369.998C370.047 177.959 370.112 177.549 370.193 177.166C370.283 176.784 370.393 176.405 370.523 176.031L373.05 168.353H377.042L371.268 183.746C370.918 184.69 370.462 185.475 369.9 186.102C369.339 186.736 368.692 187.212 367.959 187.53C367.235 187.847 366.438 188.006 365.567 188.006C365.144 188.006 364.778 187.981 364.468 187.933C364.159 187.892 363.895 187.847 363.675 187.798V184.844C363.846 184.885 364.061 184.922 364.322 184.954C364.582 184.987 364.855 185.003 365.14 185.003C365.66 185.003 366.108 184.893 366.482 184.673C366.857 184.454 367.17 184.157 367.422 183.782C367.675 183.416 367.874 183.013 368.021 182.574L368.24 181.902L362.82 168.353ZM400.149 182H395.853L391.177 174.48L389.578 175.628V182H385.794V164.153H389.578V172.32C389.83 171.97 390.079 171.62 390.323 171.27C390.567 170.92 390.815 170.57 391.067 170.22L395.901 164.153H400.101L393.875 172.051L400.149 182ZM407.73 168.096C408.991 168.096 410.078 168.34 410.989 168.829C411.901 169.309 412.605 170.009 413.101 170.928C413.597 171.848 413.846 172.971 413.846 174.297V176.104H405.044C405.085 177.154 405.398 177.98 405.984 178.582C406.578 179.176 407.4 179.473 408.45 179.473C409.321 179.473 410.118 179.384 410.843 179.205C411.567 179.026 412.312 178.757 413.077 178.399V181.28C412.401 181.613 411.693 181.858 410.953 182.012C410.22 182.167 409.329 182.244 408.279 182.244C406.912 182.244 405.7 181.992 404.642 181.487C403.592 180.983 402.766 180.214 402.164 179.18C401.569 178.147 401.272 176.845 401.272 175.274C401.272 173.679 401.541 172.352 402.078 171.294C402.623 170.228 403.38 169.431 404.349 168.902C405.317 168.365 406.444 168.096 407.73 168.096ZM407.754 170.745C407.03 170.745 406.428 170.977 405.948 171.441C405.476 171.905 405.203 172.633 405.13 173.626H410.354C410.346 173.073 410.245 172.58 410.049 172.149C409.862 171.718 409.577 171.376 409.195 171.124C408.82 170.871 408.34 170.745 407.754 170.745ZM420.12 182L414.92 168.353H418.814L421.451 176.128C421.597 176.584 421.711 177.064 421.792 177.569C421.882 178.073 421.943 178.525 421.976 178.924H422.073C422.098 178.493 422.155 178.033 422.244 177.544C422.342 177.056 422.468 176.584 422.623 176.128L425.247 168.353H429.141L423.941 182H420.12ZM434.83 168.353V182H431.106V168.353H434.83ZM432.974 163.006C433.528 163.006 434.004 163.136 434.402 163.396C434.801 163.649 435 164.125 435 164.825C435 165.516 434.801 165.997 434.402 166.265C434.004 166.526 433.528 166.656 432.974 166.656C432.413 166.656 431.932 166.526 431.534 166.265C431.143 165.997 430.948 165.516 430.948 164.825C430.948 164.125 431.143 163.649 431.534 163.396C431.932 163.136 432.413 163.006 432.974 163.006ZM446.5 168.096C447.956 168.096 449.128 168.495 450.015 169.292C450.902 170.082 451.346 171.351 451.346 173.101V182H447.623V174.029C447.623 173.052 447.444 172.316 447.085 171.819C446.736 171.323 446.182 171.075 445.425 171.075C444.286 171.075 443.509 171.461 443.094 172.234C442.679 173.007 442.471 174.122 442.471 175.579V182H438.748V168.353H441.592L442.093 170.098H442.3C442.593 169.626 442.955 169.244 443.387 168.951C443.826 168.658 444.31 168.442 444.839 168.304C445.376 168.165 445.93 168.096 446.5 168.096ZM467.667 164.153C469.97 164.153 471.65 164.65 472.708 165.643C473.766 166.627 474.295 167.986 474.295 169.72C474.295 170.501 474.177 171.25 473.941 171.966C473.705 172.674 473.318 173.305 472.781 173.858C472.252 174.411 471.544 174.851 470.657 175.176C469.77 175.494 468.676 175.652 467.374 175.652H465.75V182H461.966V164.153H467.667ZM467.471 167.254H465.75V172.552H466.995C467.703 172.552 468.318 172.458 468.838 172.271C469.359 172.084 469.762 171.791 470.047 171.392C470.332 170.993 470.474 170.481 470.474 169.854C470.474 168.975 470.23 168.324 469.742 167.901C469.253 167.47 468.497 167.254 467.471 167.254ZM489.896 168.353V182H487.039L486.539 180.254H486.343C486.05 180.718 485.684 181.097 485.245 181.39C484.805 181.683 484.321 181.898 483.792 182.037C483.263 182.175 482.714 182.244 482.144 182.244C481.167 182.244 480.317 182.073 479.593 181.731C478.868 181.382 478.303 180.84 477.896 180.108C477.497 179.375 477.298 178.423 477.298 177.251V168.353H481.021V176.324C481.021 177.3 481.196 178.037 481.546 178.533C481.896 179.03 482.453 179.278 483.218 179.278C483.975 179.278 484.569 179.107 485 178.765C485.432 178.415 485.733 177.907 485.904 177.239C486.083 176.564 486.172 175.742 486.172 174.773V168.353H489.896ZM499.551 179.278C499.958 179.278 500.353 179.237 500.735 179.156C501.126 179.074 501.513 178.973 501.895 178.851V181.622C501.496 181.801 501 181.947 500.406 182.061C499.82 182.183 499.177 182.244 498.477 182.244C497.663 182.244 496.931 182.114 496.28 181.854C495.637 181.585 495.128 181.125 494.754 180.474C494.388 179.815 494.205 178.899 494.205 177.728V171.148H492.422V169.573L494.473 168.328L495.547 165.447H497.928V168.353H501.749V171.148H497.928V177.728C497.928 178.248 498.074 178.639 498.367 178.899C498.668 179.152 499.063 179.278 499.551 179.278ZM512.283 168.096C512.47 168.096 512.686 168.108 512.93 168.133C513.182 168.149 513.386 168.174 513.541 168.206L513.26 171.697C513.138 171.657 512.963 171.628 512.735 171.612C512.515 171.587 512.324 171.575 512.161 171.575C511.681 171.575 511.213 171.636 510.757 171.758C510.31 171.88 509.907 172.08 509.549 172.356C509.191 172.625 508.906 172.983 508.694 173.431C508.491 173.87 508.389 174.411 508.389 175.054V182H504.666V168.353H507.486L508.035 170.647H508.218C508.487 170.184 508.82 169.76 509.219 169.378C509.626 168.987 510.086 168.678 510.599 168.45C511.119 168.214 511.681 168.096 512.283 168.096ZM521.609 168.072C523.44 168.072 524.844 168.471 525.821 169.268C526.797 170.066 527.286 171.278 527.286 172.906V182H524.686L523.965 180.145H523.868C523.477 180.633 523.078 181.032 522.671 181.341C522.264 181.65 521.797 181.878 521.268 182.024C520.739 182.171 520.096 182.244 519.339 182.244C518.533 182.244 517.809 182.09 517.166 181.78C516.531 181.471 516.031 180.999 515.665 180.364C515.298 179.721 515.115 178.908 515.115 177.923C515.115 176.474 515.624 175.408 516.641 174.725C517.658 174.033 519.184 173.65 521.219 173.577L523.587 173.504V172.906C523.587 172.19 523.4 171.665 523.025 171.331C522.651 170.997 522.13 170.831 521.463 170.831C520.804 170.831 520.157 170.924 519.522 171.111C518.887 171.299 518.252 171.535 517.618 171.819L516.385 169.305C517.109 168.922 517.919 168.621 518.814 168.401C519.717 168.182 520.649 168.072 521.609 168.072ZM523.587 175.677L522.146 175.726C520.942 175.758 520.104 175.974 519.632 176.373C519.168 176.771 518.936 177.296 518.936 177.947C518.936 178.517 519.103 178.924 519.437 179.168C519.77 179.404 520.206 179.522 520.743 179.522C521.54 179.522 522.212 179.286 522.757 178.814C523.31 178.342 523.587 177.671 523.587 176.8V175.677ZM548.453 177.044C548.453 178.102 548.196 179.021 547.684 179.803C547.171 180.584 546.422 181.186 545.438 181.609C544.461 182.033 543.273 182.244 541.873 182.244C541.255 182.244 540.648 182.203 540.054 182.122C539.468 182.041 538.903 181.923 538.357 181.768C537.82 181.605 537.308 181.406 536.819 181.17V177.654C537.666 178.029 538.545 178.366 539.456 178.667C540.368 178.969 541.271 179.119 542.166 179.119C542.785 179.119 543.281 179.038 543.655 178.875C544.038 178.712 544.314 178.488 544.485 178.204C544.656 177.919 544.742 177.593 544.742 177.227C544.742 176.779 544.591 176.397 544.29 176.08C543.989 175.762 543.574 175.465 543.045 175.188C542.524 174.912 541.934 174.615 541.275 174.297C540.86 174.102 540.408 173.866 539.92 173.589C539.432 173.305 538.968 172.959 538.528 172.552C538.089 172.145 537.727 171.653 537.442 171.075C537.165 170.489 537.027 169.789 537.027 168.975C537.027 167.909 537.271 166.998 537.759 166.241C538.248 165.484 538.943 164.906 539.847 164.507C540.758 164.1 541.832 163.897 543.069 163.897C543.997 163.897 544.88 164.007 545.718 164.227C546.565 164.438 547.448 164.747 548.367 165.154L547.146 168.096C546.325 167.763 545.588 167.506 544.937 167.327C544.286 167.14 543.623 167.046 542.947 167.046C542.475 167.046 542.072 167.124 541.739 167.278C541.405 167.425 541.153 167.636 540.982 167.913C540.811 168.182 540.726 168.495 540.726 168.853C540.726 169.276 540.848 169.634 541.092 169.927C541.344 170.212 541.718 170.489 542.215 170.757C542.719 171.026 543.346 171.339 544.095 171.697C545.006 172.129 545.783 172.58 546.426 173.052C547.077 173.516 547.578 174.065 547.928 174.7C548.278 175.327 548.453 176.108 548.453 177.044ZM556.985 168.072C558.816 168.072 560.22 168.471 561.197 169.268C562.173 170.066 562.662 171.278 562.662 172.906V182H560.062L559.341 180.145H559.244C558.853 180.633 558.454 181.032 558.047 181.341C557.64 181.65 557.173 181.878 556.644 182.024C556.115 182.171 555.472 182.244 554.715 182.244C553.909 182.244 553.185 182.09 552.542 181.78C551.907 181.471 551.407 180.999 551.041 180.364C550.674 179.721 550.491 178.908 550.491 177.923C550.491 176.474 551 175.408 552.017 174.725C553.034 174.033 554.56 173.65 556.595 173.577L558.963 173.504V172.906C558.963 172.19 558.776 171.665 558.401 171.331C558.027 170.997 557.506 170.831 556.839 170.831C556.18 170.831 555.533 170.924 554.898 171.111C554.263 171.299 553.628 171.535 552.994 171.819L551.761 169.305C552.485 168.922 553.295 168.621 554.19 168.401C555.093 168.182 556.025 168.072 556.985 168.072ZM558.963 175.677L557.522 175.726C556.318 175.758 555.48 175.974 555.008 176.373C554.544 176.771 554.312 177.296 554.312 177.947C554.312 178.517 554.479 178.924 554.812 179.168C555.146 179.404 555.582 179.522 556.119 179.522C556.916 179.522 557.588 179.286 558.133 178.814C558.686 178.342 558.963 177.671 558.963 176.8V175.677ZM572.256 179.278C572.663 179.278 573.058 179.237 573.44 179.156C573.831 179.074 574.218 178.973 574.6 178.851V181.622C574.201 181.801 573.705 181.947 573.111 182.061C572.525 182.183 571.882 182.244 571.182 182.244C570.368 182.244 569.636 182.114 568.985 181.854C568.342 181.585 567.833 181.125 567.459 180.474C567.093 179.815 566.91 178.899 566.91 177.728V171.148H565.127V169.573L567.178 168.328L568.252 165.447H570.633V168.353H574.454V171.148H570.633V177.728C570.633 178.248 570.779 178.639 571.072 178.899C571.373 179.152 571.768 179.278 572.256 179.278ZM584.988 168.096C585.175 168.096 585.391 168.108 585.635 168.133C585.888 168.149 586.091 168.174 586.246 168.206L585.965 171.697C585.843 171.657 585.668 171.628 585.44 171.612C585.22 171.587 585.029 171.575 584.866 171.575C584.386 171.575 583.918 171.636 583.462 171.758C583.015 171.88 582.612 172.08 582.254 172.356C581.896 172.625 581.611 172.983 581.399 173.431C581.196 173.87 581.094 174.411 581.094 175.054V182H577.371V168.353H580.191L580.74 170.647H580.923C581.192 170.184 581.526 169.76 581.924 169.378C582.331 168.987 582.791 168.678 583.304 168.45C583.825 168.214 584.386 168.096 584.988 168.096ZM592.447 168.353V182H588.724V168.353H592.447ZM590.591 163.006C591.145 163.006 591.621 163.136 592.02 163.396C592.418 163.649 592.618 164.125 592.618 164.825C592.618 165.516 592.418 165.997 592.02 166.265C591.621 166.526 591.145 166.656 590.591 166.656C590.03 166.656 589.55 166.526 589.151 166.265C588.76 165.997 588.565 165.516 588.565 164.825C588.565 164.125 588.76 163.649 589.151 163.396C589.55 163.136 590.03 163.006 590.591 163.006ZM601.956 168.072C603.787 168.072 605.191 168.471 606.167 169.268C607.144 170.066 607.632 171.278 607.632 172.906V182H605.032L604.312 180.145H604.214C603.824 180.633 603.425 181.032 603.018 181.341C602.611 181.65 602.143 181.878 601.614 182.024C601.085 182.171 600.442 182.244 599.686 182.244C598.88 182.244 598.156 182.09 597.513 181.78C596.878 181.471 596.377 180.999 596.011 180.364C595.645 179.721 595.462 178.908 595.462 177.923C595.462 176.474 595.971 175.408 596.988 174.725C598.005 174.033 599.531 173.65 601.565 173.577L603.934 173.504V172.906C603.934 172.19 603.746 171.665 603.372 171.331C602.998 170.997 602.477 170.831 601.81 170.831C601.15 170.831 600.503 170.924 599.869 171.111C599.234 171.299 598.599 171.535 597.964 171.819L596.731 169.305C597.456 168.922 598.265 168.621 599.161 168.401C600.064 168.182 600.996 168.072 601.956 168.072ZM603.934 175.677L602.493 175.726C601.289 175.758 600.451 175.974 599.979 176.373C599.515 176.771 599.283 177.296 599.283 177.947C599.283 178.517 599.45 178.924 599.783 179.168C600.117 179.404 600.552 179.522 601.089 179.522C601.887 179.522 602.558 179.286 603.104 178.814C603.657 178.342 603.934 177.671 603.934 176.8V175.677ZM619.229 168.096C620.686 168.096 621.858 168.495 622.745 169.292C623.632 170.082 624.075 171.351 624.075 173.101V182H620.352V174.029C620.352 173.052 620.173 172.316 619.815 171.819C619.465 171.323 618.912 171.075 618.155 171.075C617.015 171.075 616.238 171.461 615.823 172.234C615.408 173.007 615.201 174.122 615.201 175.579V182H611.478V168.353H614.322L614.822 170.098H615.03C615.323 169.626 615.685 169.244 616.116 168.951C616.556 168.658 617.04 168.442 617.569 168.304C618.106 168.165 618.659 168.096 619.229 168.096ZM633.658 179.278C634.065 179.278 634.459 179.237 634.842 179.156C635.232 179.074 635.619 178.973 636.001 178.851V181.622C635.603 181.801 635.106 181.947 634.512 182.061C633.926 182.183 633.283 182.244 632.583 182.244C631.77 182.244 631.037 182.114 630.386 181.854C629.743 181.585 629.235 181.125 628.86 180.474C628.494 179.815 628.311 178.899 628.311 177.728V171.148H626.529V169.573L628.58 168.328L629.654 165.447H632.034V168.353H635.855V171.148H632.034V177.728C632.034 178.248 632.181 178.639 632.474 178.899C632.775 179.152 633.169 179.278 633.658 179.278ZM651.175 175.152C651.175 176.291 651.02 177.3 650.711 178.179C650.41 179.058 649.966 179.803 649.38 180.413C648.803 181.015 648.103 181.471 647.281 181.78C646.467 182.09 645.547 182.244 644.522 182.244C643.562 182.244 642.679 182.09 641.873 181.78C641.076 181.471 640.38 181.015 639.786 180.413C639.2 179.803 638.744 179.058 638.418 178.179C638.101 177.3 637.942 176.291 637.942 175.152C637.942 173.638 638.211 172.356 638.748 171.307C639.285 170.257 640.05 169.459 641.043 168.914C642.036 168.369 643.22 168.096 644.595 168.096C645.873 168.096 647.004 168.369 647.989 168.914C648.982 169.459 649.759 170.257 650.32 171.307C650.89 172.356 651.175 173.638 651.175 175.152ZM641.739 175.152C641.739 176.047 641.836 176.8 642.032 177.41C642.227 178.021 642.532 178.48 642.947 178.79C643.362 179.099 643.903 179.253 644.571 179.253C645.23 179.253 645.763 179.099 646.17 178.79C646.585 178.48 646.886 178.021 647.073 177.41C647.269 176.8 647.366 176.047 647.366 175.152C647.366 174.249 647.269 173.5 647.073 172.906C646.886 172.304 646.585 171.852 646.17 171.551C645.755 171.25 645.214 171.099 644.546 171.099C643.562 171.099 642.846 171.437 642.398 172.112C641.958 172.788 641.739 173.801 641.739 175.152ZM659.793 175.152C659.793 173.793 659.923 172.466 660.184 171.172C660.444 169.87 660.847 168.629 661.392 167.449C661.937 166.261 662.629 165.162 663.467 164.153H666.519C665.38 165.716 664.513 167.441 663.919 169.329C663.333 171.217 663.04 173.15 663.04 175.127C663.04 176.413 663.17 177.695 663.431 178.973C663.691 180.242 664.078 181.467 664.59 182.647C665.111 183.827 665.746 184.93 666.495 185.955H663.467C662.629 184.979 661.937 183.908 661.392 182.745C660.847 181.589 660.444 180.372 660.184 179.095C659.923 177.809 659.793 176.495 659.793 175.152ZM672.464 182L667.264 168.353H671.158L673.794 176.128C673.941 176.584 674.055 177.064 674.136 177.569C674.226 178.073 674.287 178.525 674.319 178.924H674.417C674.441 178.493 674.498 178.033 674.588 177.544C674.686 177.056 674.812 176.584 674.966 176.128L677.591 168.353H681.485L676.285 182H672.464ZM687.173 168.353V182H683.45V168.353H687.173ZM685.318 163.006C685.871 163.006 686.347 163.136 686.746 163.396C687.145 163.649 687.344 164.125 687.344 164.825C687.344 165.516 687.145 165.997 686.746 166.265C686.347 166.526 685.871 166.656 685.318 166.656C684.756 166.656 684.276 166.526 683.877 166.265C683.487 165.997 683.292 165.516 683.292 164.825C683.292 164.125 683.487 163.649 683.877 163.396C684.276 163.136 684.756 163.006 685.318 163.006ZM698.843 168.096C700.3 168.096 701.472 168.495 702.359 169.292C703.246 170.082 703.689 171.351 703.689 173.101V182H699.966V174.029C699.966 173.052 699.787 172.316 699.429 171.819C699.079 171.323 698.526 171.075 697.769 171.075C696.63 171.075 695.853 171.461 695.438 172.234C695.022 173.007 694.815 174.122 694.815 175.579V182H691.092V168.353H693.936L694.437 170.098H694.644C694.937 169.626 695.299 169.244 695.73 168.951C696.17 168.658 696.654 168.442 697.183 168.304C697.72 168.165 698.274 168.096 698.843 168.096ZM715.14 168.096C715.327 168.096 715.542 168.108 715.787 168.133C716.039 168.149 716.242 168.174 716.397 168.206L716.116 171.697C715.994 171.657 715.819 171.628 715.591 171.612C715.372 171.587 715.18 171.575 715.018 171.575C714.537 171.575 714.069 171.636 713.614 171.758C713.166 171.88 712.763 172.08 712.405 172.356C712.047 172.625 711.762 172.983 711.551 173.431C711.347 173.87 711.246 174.411 711.246 175.054V182H707.522V168.353H710.342L710.892 170.647H711.075C711.343 170.184 711.677 169.76 712.076 169.378C712.483 168.987 712.942 168.678 713.455 168.45C713.976 168.214 714.537 168.096 715.14 168.096ZM724.466 168.072C726.297 168.072 727.701 168.471 728.677 169.268C729.654 170.066 730.142 171.278 730.142 172.906V182H727.542L726.822 180.145H726.724C726.333 180.633 725.935 181.032 725.528 181.341C725.121 181.65 724.653 181.878 724.124 182.024C723.595 182.171 722.952 182.244 722.195 182.244C721.39 182.244 720.665 182.09 720.022 181.78C719.388 181.471 718.887 180.999 718.521 180.364C718.155 179.721 717.972 178.908 717.972 177.923C717.972 176.474 718.48 175.408 719.498 174.725C720.515 174.033 722.041 173.65 724.075 173.577L726.443 173.504V172.906C726.443 172.19 726.256 171.665 725.882 171.331C725.507 170.997 724.987 170.831 724.319 170.831C723.66 170.831 723.013 170.924 722.378 171.111C721.744 171.299 721.109 171.535 720.474 171.819L719.241 169.305C719.965 168.922 720.775 168.621 721.67 168.401C722.574 168.182 723.506 168.072 724.466 168.072ZM726.443 175.677L725.003 175.726C723.799 175.758 722.96 175.974 722.488 176.373C722.024 176.771 721.792 177.296 721.792 177.947C721.792 178.517 721.959 178.924 722.293 179.168C722.627 179.404 723.062 179.522 723.599 179.522C724.397 179.522 725.068 179.286 725.613 178.814C726.167 178.342 726.443 177.671 726.443 176.8V175.677ZM739.737 179.278C740.144 179.278 740.538 179.237 740.921 179.156C741.312 179.074 741.698 178.973 742.081 178.851V181.622C741.682 181.801 741.185 181.947 740.591 182.061C740.005 182.183 739.362 182.244 738.663 182.244C737.849 182.244 737.116 182.114 736.465 181.854C735.822 181.585 735.314 181.125 734.939 180.474C734.573 179.815 734.39 178.899 734.39 177.728V171.148H732.608V169.573L734.659 168.328L735.733 165.447H738.113V168.353H741.934V171.148H738.113V177.728C738.113 178.248 738.26 178.639 738.553 178.899C738.854 179.152 739.249 179.278 739.737 179.278ZM757.254 175.152C757.254 176.291 757.099 177.3 756.79 178.179C756.489 179.058 756.045 179.803 755.459 180.413C754.882 181.015 754.182 181.471 753.36 181.78C752.546 182.09 751.626 182.244 750.601 182.244C749.641 182.244 748.758 182.09 747.952 181.78C747.155 181.471 746.459 181.015 745.865 180.413C745.279 179.803 744.823 179.058 744.498 178.179C744.18 177.3 744.021 176.291 744.021 175.152C744.021 173.638 744.29 172.356 744.827 171.307C745.364 170.257 746.129 169.459 747.122 168.914C748.115 168.369 749.299 168.096 750.674 168.096C751.952 168.096 753.083 168.369 754.068 168.914C755.061 169.459 755.838 170.257 756.399 171.307C756.969 172.356 757.254 173.638 757.254 175.152ZM747.818 175.152C747.818 176.047 747.916 176.8 748.111 177.41C748.306 178.021 748.611 178.48 749.026 178.79C749.441 179.099 749.983 179.253 750.65 179.253C751.309 179.253 751.842 179.099 752.249 178.79C752.664 178.48 752.965 178.021 753.152 177.41C753.348 176.8 753.445 176.047 753.445 175.152C753.445 174.249 753.348 173.5 753.152 172.906C752.965 172.304 752.664 171.852 752.249 171.551C751.834 171.25 751.293 171.099 750.625 171.099C749.641 171.099 748.925 171.437 748.477 172.112C748.038 172.788 747.818 173.801 747.818 175.152ZM765.848 175.152C765.848 176.495 765.717 177.809 765.457 179.095C765.197 180.372 764.794 181.589 764.249 182.745C763.711 183.908 763.02 184.979 762.173 185.955H759.146C759.903 184.93 760.538 183.827 761.05 182.647C761.563 181.467 761.95 180.242 762.21 178.973C762.47 177.695 762.601 176.413 762.601 175.127C762.601 173.809 762.466 172.507 762.198 171.221C761.937 169.935 761.551 168.698 761.038 167.51C760.525 166.314 759.887 165.195 759.122 164.153H762.173C763.02 165.162 763.711 166.261 764.249 167.449C764.794 168.629 765.197 169.87 765.457 171.172C765.717 172.466 765.848 173.793 765.848 175.152Z" fill="#919191"/>
</svg>
