<svg width="32" height="33" viewBox="0 0 32 33" fill="none" xmlns="http://www.w3.org/2000/svg">
<path d="M26.925 12.1125C26.8485 11.9305 26.7198 11.7752 26.5552 11.6662C26.3906 11.5572 26.1974 11.4994 26 11.5H6C5.80257 11.4994 5.60938 11.5572 5.44477 11.6662C5.28016 11.7752 5.1515 11.9305 5.075 12.1125C5.00295 12.2972 4.98468 12.4985 5.02228 12.6932C5.05989 12.8879 5.15184 13.0679 5.2875 13.2125L15.2875 23.2125C15.4786 23.3973 15.7341 23.5006 16 23.5006C16.2659 23.5006 16.5214 23.3973 16.7125 23.2125L26.7125 13.2125C26.8482 13.0679 26.9401 12.8879 26.9777 12.6932C27.0153 12.4985 26.997 12.2972 26.925 12.1125V12.1125Z" fill="#E8E8E8"/>
</svg>
