<svg width="32" height="33" viewBox="0 0 32 33" fill="none" xmlns="http://www.w3.org/2000/svg">
<path d="M26.7125 19.7875L16.7125 9.7875C16.5229 9.59972 16.2668 9.49437 16 9.49437C15.7332 9.49437 15.4771 9.59972 15.2875 9.7875L5.2875 19.7875C5.15184 19.9321 5.05989 20.1121 5.02228 20.3068C4.98468 20.5015 5.00296 20.7028 5.075 20.8875C5.1515 21.0695 5.28017 21.2248 5.44478 21.3338C5.60939 21.4428 5.80258 21.5006 6 21.5H26C26.1974 21.5006 26.3906 21.4428 26.5552 21.3338C26.7198 21.2248 26.8485 21.0695 26.925 20.8875C26.997 20.7028 27.0153 20.5015 26.9777 20.3068C26.9401 20.1121 26.8482 19.9321 26.7125 19.7875V19.7875Z" fill="#E8E8E8"/>
</svg>
