<svg width="32" height="32" viewBox="0 0 32 32" fill="none" xmlns="http://www.w3.org/2000/svg">
<path d="M10 7H22C24.3869 7 26.6761 7.94821 28.364 9.63604C30.0518 11.3239 31 13.6131 31 16C31 18.3869 30.0518 20.6761 28.364 22.364C26.6761 24.0518 24.3869 25 22 25H10C7.61305 25 5.32387 24.0518 3.63604 22.364C1.94821 20.6761 1 18.3869 1 16C1 13.6131 1.94821 11.3239 3.63604 9.63604C5.32387 7.94821 7.61305 7 10 7V7ZM22 21C22.9889 21 23.9556 20.7068 24.7779 20.1573C25.6001 19.6079 26.241 18.827 26.6194 17.9134C26.9978 16.9998 27.0969 15.9945 26.9039 15.0245C26.711 14.0546 26.2348 13.1637 25.5355 12.4645C24.8363 11.7652 23.9454 11.289 22.9755 11.0961C22.0055 10.9031 21.0002 11.0022 20.0866 11.3806C19.173 11.759 18.3921 12.3999 17.8427 13.2221C17.2932 14.0444 17 15.0111 17 16C17 17.3261 17.5268 18.5979 18.4645 19.5355C19.4021 20.4732 20.6739 21 22 21Z" fill="#86E9FF"/>
<mask id="path-2-inside-1_9_25" fill="white">
<path d="M31 16C31 11.0294 26.9706 7 22 7H10C5.02944 7 1 11.0294 1 16V16C1 20.9706 5.02944 25 10 25H22C26.9706 25 31 20.9706 31 16V16Z"/>
</mask>
<path d="M31 16C31 10.4772 26.5228 6 21 6H11C5.47715 6 1 10.4772 1 16C1 11.5817 5.02944 8 10 8H22C26.9706 8 31 11.5817 31 16ZM1 25H31H1ZM31 25V7V25ZM1 7V25V7Z" fill="white" fill-opacity="0.5" mask="url(#path-2-inside-1_9_25)"/>
</svg>
